<svg width="44" height="28" viewBox="0 0 44 28" fill="none" xmlns="http://www.w3.org/2000/svg">
<g filter="url(#filter0_d_3_119)">
<path d="M38.8684 18.0622C38.8259 17.9707 38.7864 17.8948 38.7496 17.834C38.1414 16.7387 36.9792 15.3942 35.2636 13.8002L35.2273 13.7637L35.2092 13.7458L35.1908 13.7275H35.1724C34.3938 12.9852 33.9008 12.4861 33.6943 12.2306C33.3165 11.7439 33.2318 11.2512 33.4383 10.752C33.5842 10.3749 34.1322 9.57835 35.081 8.3614C35.58 7.71645 35.9753 7.19955 36.2672 6.81011C38.3723 4.01144 39.285 2.22306 39.005 1.44425L38.8962 1.26225C38.8232 1.15269 38.6346 1.05245 38.3307 0.961035C38.0262 0.869813 37.637 0.854728 37.1623 0.915521L31.9061 0.95183C31.8209 0.921657 31.6993 0.92447 31.5409 0.961035C31.3827 0.997601 31.3036 1.01595 31.3036 1.01595L31.2121 1.06165L31.1395 1.11657C31.0786 1.15288 31.0117 1.21674 30.9386 1.30803C30.8659 1.39899 30.8052 1.50575 30.7566 1.6274C30.1843 3.09967 29.5337 4.46851 28.8034 5.73386C28.3532 6.48838 27.9397 7.14227 27.5621 7.69593C27.185 8.2494 26.8687 8.65718 26.6133 8.91858C26.3576 9.18022 26.1269 9.38984 25.9196 9.54818C25.7127 9.70659 25.5547 9.77352 25.4454 9.74904C25.3357 9.72455 25.2325 9.70026 25.1347 9.67597C24.9645 9.5664 24.8276 9.41739 24.7243 9.22881C24.6207 9.04023 24.5508 8.80287 24.5143 8.51693C24.478 8.2308 24.4566 7.98469 24.4504 7.77776C24.4447 7.57109 24.4474 7.27875 24.4597 6.90159C24.4723 6.52424 24.478 6.26892 24.478 6.13506C24.478 5.67262 24.4871 5.17074 24.5051 4.62929C24.5236 4.08784 24.5384 3.65883 24.5509 3.34278C24.5633 3.02641 24.5691 2.6917 24.5691 2.33883C24.5691 1.98596 24.5476 1.70922 24.5051 1.50837C24.4632 1.30777 24.3988 1.11305 24.314 0.924278C24.2287 0.735697 24.1038 0.589819 23.9398 0.486259C23.7756 0.382827 23.5714 0.300747 23.3285 0.239761C22.6835 0.0938189 21.8623 0.0148707 20.8643 0.00259691C18.6013 -0.0216949 17.1472 0.124439 16.5023 0.440808C16.2468 0.574476 16.0155 0.757112 15.8088 0.98814C15.5897 1.25592 15.5592 1.40206 15.7173 1.4261C16.4475 1.53547 16.9644 1.79712 17.2686 2.21078L17.3783 2.42999C17.4635 2.58814 17.5487 2.86813 17.6339 3.26959C17.719 3.67104 17.7739 4.11513 17.7981 4.60161C17.8588 5.48998 17.8588 6.25044 17.7981 6.88305C17.7371 7.51592 17.6796 8.00859 17.6247 8.36146C17.5698 8.71433 17.4877 9.00027 17.3783 9.21922C17.2686 9.43823 17.1957 9.57209 17.1591 9.62067C17.1226 9.66926 17.0922 9.69988 17.068 9.71189C16.9099 9.7725 16.7454 9.80337 16.5752 9.80337C16.4047 9.80337 16.1979 9.7181 15.9546 9.54767C15.7114 9.37724 15.4589 9.14315 15.1973 8.845C14.9356 8.54678 14.6406 8.13005 14.3119 7.59474C13.9835 7.05942 13.6428 6.42675 13.2899 5.69672L12.998 5.16729C12.8155 4.82669 12.5662 4.33075 12.2498 3.67993C11.9332 3.02884 11.6534 2.39904 11.4102 1.79066C11.313 1.53515 11.1669 1.34063 10.9723 1.20677L10.8809 1.15185C10.8202 1.10327 10.7227 1.05168 10.589 0.996706C10.455 0.941794 10.3153 0.902415 10.1692 0.878187L5.16831 0.914498C4.65728 0.914498 4.31055 1.03027 4.12798 1.26149L4.05491 1.37086C4.01841 1.43178 4 1.52908 4 1.663C4 1.79686 4.0365 1.96115 4.10957 2.15568C4.8396 3.87145 5.63349 5.52617 6.49125 7.12009C7.34901 8.71402 8.09438 9.99796 8.72693 10.9708C9.3596 11.9443 10.0045 12.8631 10.6616 13.7268C11.3187 14.5907 11.7536 15.1444 11.9664 15.3876C12.1795 15.6313 12.3468 15.8135 12.4685 15.9351L12.9249 16.3731C13.2169 16.6652 13.6457 17.015 14.2115 17.4225C14.7774 17.8303 15.404 18.2317 16.0914 18.6275C16.779 19.0226 17.5789 19.3451 18.4916 19.5944C19.4041 19.8441 20.2923 19.9442 21.1563 19.8959H23.2552C23.6809 19.8591 24.0034 19.7253 24.2226 19.4943L24.2952 19.4028C24.344 19.3302 24.3898 19.2173 24.4319 19.0655C24.4747 18.9134 24.4959 18.7459 24.4959 18.5636C24.4834 18.0405 24.5232 17.5691 24.6143 17.1493C24.7052 16.7297 24.8089 16.4134 24.9249 16.2003C25.0408 15.9874 25.1716 15.8078 25.3171 15.6622C25.463 15.5162 25.5669 15.4278 25.6279 15.3974C25.6885 15.3668 25.7369 15.346 25.7734 15.3335C26.0654 15.2362 26.4091 15.3305 26.8049 15.6167C27.2004 15.9026 27.5714 16.2557 27.9184 16.6753C28.2652 17.0953 28.6819 17.5665 29.1685 18.0896C29.6554 18.6129 30.0811 19.0018 30.446 19.2577L30.8109 19.4767C31.0546 19.6229 31.371 19.7567 31.7604 19.8784C32.1491 20 32.4897 20.0304 32.7822 19.9696L37.4543 19.8967C37.9164 19.8967 38.276 19.8202 38.5311 19.6684C38.7867 19.5163 38.9385 19.3488 38.9875 19.1665C39.0363 18.9841 39.0389 18.7771 38.9967 18.5457C38.9534 18.3148 38.9108 18.1534 38.8684 18.0622Z" fill="white"/>
</g>
<defs>
<filter id="filter0_d_3_119" x="0" y="0" width="43.0543" height="28" filterUnits="userSpaceOnUse" color-interpolation-filters="sRGB">
<feFlood flood-opacity="0" result="BackgroundImageFix"/>
<feColorMatrix in="SourceAlpha" type="matrix" values="0 0 0 0 0 0 0 0 0 0 0 0 0 0 0 0 0 0 127 0" result="hardAlpha"/>
<feOffset dy="4"/>
<feGaussianBlur stdDeviation="2"/>
<feComposite in2="hardAlpha" operator="out"/>
<feColorMatrix type="matrix" values="0 0 0 0 0 0 0 0 0 0 0 0 0 0 0 0 0 0 0.25 0"/>
<feBlend mode="normal" in2="BackgroundImageFix" result="effect1_dropShadow_3_119"/>
<feBlend mode="normal" in="SourceGraphic" in2="effect1_dropShadow_3_119" result="shape"/>
</filter>
</defs>
</svg>
